# xmcd
#
# Track frame offsets:
#	150
#	18235
#	37722
#	59100
#	75635
#	92797
#	103507
#	113912
#	131240
#	151715
#	170282
#	192325
#	204797
#	230785
#	251845
#	272712
#	296622
#	309845
#	321612
#
# Disc length: 4525 seconds
#
# Revision: 3
# Processed by: cddbd v1.5.2PL0 Copyright (c) Steve Scherf et al.
# Submitted via: EasyCDDAExtractor 16.0.6.1
#
DISCID=0711ab13
DTITLE=Simon And Garfunkel - R-193 The Concert In Central Park
DYEAR=1982
DGENRE=Blues
TTITLE0=Mrs. Robinson
TTITLE1=Homeward Bound
TTITLE2=America
TTITLE3=Me And Julio Down By The Schoolyard
TTITLE4=Scarborough Fair
TTITLE5=April Come She Will
TTITLE6=Wake Up Little Susie
TTITLE7=Still Crazy After All These Years
TTITLE8=American Tune
TTITLE9=Late In The Evening
TTITLE10=Slip Slidin´away
TTITLE11=A Heart In New York
TTITLE12=Kodachrome/Mabellene
TTITLE13=Bridge Over Troubled Water
TTITLE14=Fifty Ways To Leave Your Lover
TTITLE15=The Boxer
TTITLE16=Old Friends
TTITLE17=The 59th Street Bridge Song (Feelin´groovy)
TTITLE18=The Sounds Of Silence
EXTD=
EXTT0=
EXTT1=
EXTT2=
EXTT3=
EXTT4=
EXTT5=
EXTT6=
EXTT7=
EXTT8=
EXTT9=
EXTT10=
EXTT11=
EXTT12=
EXTT13=
EXTT14=
EXTT15=
EXTT16=
EXTT17=
EXTT18=
PLAYORDER=
